<?xml version="1.0" ?><svg viewBox="0 0 64 64" xmlns="http://www.w3.org/2000/svg"><title/><g id="pharmacy-drugs"><circle cx="34" cy="30" r="23" style="fill:#edebdc"/><path d="M33,11H48.5A6.5,6.5,0,0,1,55,17.5v16A6.5,6.5,0,0,1,48.5,40h-25A6.5,6.5,0,0,0,17,46.5h0A6.5,6.5,0,0,0,23.5,53H45" style="fill:none;stroke:#4c241d;stroke-linecap:round;stroke-linejoin:round;stroke-width:2px"/><line style="fill:none;stroke:#4c241d;stroke-linecap:round;stroke-linejoin:round;stroke-width:2px" x1="12" x2="12" y1="6" y2="8"/><line style="fill:none;stroke:#4c241d;stroke-linecap:round;stroke-linejoin:round;stroke-width:2px" x1="12" x2="12" y1="12" y2="14"/><line style="fill:none;stroke:#4c241d;stroke-linecap:round;stroke-linejoin:round;stroke-width:2px" x1="8" x2="10" y1="10" y2="10"/><line style="fill:none;stroke:#4c241d;stroke-linecap:round;stroke-linejoin:round;stroke-width:2px" x1="14" x2="16" y1="10" y2="10"/><path d="M5.082,21.667A1.069,1.069,0,1,1,4.013,20.6,1.07,1.07,0,0,1,5.082,21.667Z" style="fill:#4c241d"/><line style="fill:none;stroke:#4c241d;stroke-linecap:round;stroke-linejoin:round;stroke-width:2px" x1="41" x2="24" y1="57" y2="57"/><line style="fill:none;stroke:#4c241d;stroke-linecap:round;stroke-linejoin:round;stroke-width:2px" x1="34" x2="34" y1="37" y2="57"/><path d="M50,23c-1.527,7.9-7.659,14-16,14A17.665,17.665,0,0,1,17,23Z" style="fill:#fff;stroke:#4c241d;stroke-linecap:round;stroke-linejoin:round;stroke-width:2px"/><circle cx="54.5" cy="48.5" r="2.5" style="fill:none;stroke:#4c241d;stroke-linecap:round;stroke-linejoin:round;stroke-width:2px"/><path d="M62.072,33.04A1.07,1.07,0,1,1,61,31.971,1.069,1.069,0,0,1,62.072,33.04Z" style="fill:#4c241d"/><polygon points="40 20 36 20 36 16 31 16 31 20 27 20 27 25 31 25 31 29 36 29 36 25 40 25 40 20" style="fill:#9dc1e4;stroke:#4c241d;stroke-linecap:round;stroke-linejoin:round;stroke-width:2px"/><circle cx="23" cy="50" r="7" style="fill:#fff;stroke:#4c241d;stroke-linecap:round;stroke-linejoin:round;stroke-width:2px"/><circle cx="23" cy="50" r="3.369" style="fill:#ffe8dc;stroke:#4c241d;stroke-linecap:round;stroke-linejoin:round;stroke-width:2px"/><path d="M16.09,46.1a4.591,4.591,0,0,0-6.491,0h0a4.591,4.591,0,0,0,0,6.491l2.656,2.655,6.49-6.49Z" style="fill:#9dc1e4;stroke:#4c241d;stroke-linecap:round;stroke-linejoin:round;stroke-width:2px"/><path d="M21.4,51.41l-2.656-2.655-6.49,6.49L14.91,57.9a4.591,4.591,0,0,0,6.491,0h0A4.591,4.591,0,0,0,21.4,51.41Z" style="fill:#f53e28;stroke:#4c241d;stroke-linecap:round;stroke-linejoin:round;stroke-width:2px"/></g></svg>