<?xml version="1.0" encoding="UTF-8" standalone="no"?> <svg id="Layer_1" data-name="Layer 1" xmlns="http://www.w3.org/2000/svg" viewBox="0 0 512 512"><title>medical-first-aid-kit-flat</title><path d="M0,256C0,114.61,114.61,0,256,0S512,114.63,512,256,397.38,512,256,512,0,397.39,0,256Z" fill="#00c7ff"/><path d="M187.93,196.36H146.06c-6.76,0-12.69,5.51-12.69,11.85v134c0,6.34,5.93,11.85,12.69,11.85H365.94c6.77,0,12.69-5.51,12.69-11.85V226.4c-.42.85-1.27,1.25-3,1.25H136.75s-3,0-3-1.69V215.4a1.36,1.36,0,0,1,1.27-1.27H377.36c.42,0,.85.42,1.27.42v-6.34c0-6.35-5.91-11.85-12.69-11.85H319.85V157.9H187.93v38.46Z" fill="#fff" fill-rule="evenodd"/><rect x="202.73" y="170.17" width="102.32" height="22.81" fill="#fdfdfd"/><path d="M204.84,316.45h22.41s3.38-.41,3.38,2.54v21.15a6.15,6.15,0,0,0,6.35,5.91h38c3.82,0,6.35-2.54,6.35-5.91V319.42c0-2.54,3.38-3,3.38-3h22.41a6.15,6.15,0,0,0,6.35-5.91V275a6.15,6.15,0,0,0-6.35-5.91H284.33c-2.53,0-3-3-3-3V245c0-3-2.54-5.49-6.35-5.49H237c-3.38,0-6.35,2.54-6.35,5.49v21.57a2.64,2.64,0,0,1-3,2.54H204.84a6.15,6.15,0,0,0-6.35,5.91v35.51a6.15,6.15,0,0,0,6.35,5.91Z" fill="#00c7ff" fill-rule="evenodd"/></svg>