<?xml version="1.0" ?><svg data-name="Layer 2" id="Layer_2" viewBox="0 0 32 32" xmlns="http://www.w3.org/2000/svg"><defs><style>.cls-1{fill:#ff005c;}</style></defs><title/><path d="M28,9V3L27,2H5L4,3V9l1,1H7.18l-3,4.78L4,15.32V29l1,1H27l1-1V15.32l-.16-.54-3-4.78H27Zm-2,6.61V28H6V15.61L9.55,10h12.9ZM26,8H6V4H26Z"/><polygon class="cls-1" points="26 15.61 26 28 24 28 24 15.32 23.84 14.78 20.82 10 22.45 10 26 15.61"/><rect class="cls-1" height="4" width="2" x="24" y="4"/><polygon points="15 23 17 23 17 20.5 19.5 20.5 19.5 18.5 17 18.5 17 16 15 16 15 18.5 12.5 18.5 12.5 20.5 15 20.5 15 23"/></svg>